<svg xmlns="http://www.w3.org/2000/svg" width="1200" height="630" viewBox="0 0 1200 630">
  <defs>
    <linearGradient id="background" x1="0" y1="0" x2="1" y2="1">
      <stop offset="0" stop-color="#0d1117"/>
      <stop offset="1" stop-color="#111f3c"/>
    </linearGradient>
    <linearGradient id="arrow" x1="0" y1="1" x2="1" y2="0">
      <stop offset="0" stop-color="#7cff00"/>
      <stop offset="1" stop-color="#d9ad35"/>
    </linearGradient>
    <pattern id="grid" width="44" height="44" patternUnits="userSpaceOnUse">
      <path d="M44 0H0V44" fill="none" stroke="#ffffff" stroke-opacity="0.035"/>
    </pattern>
  </defs>
  <rect width="1200" height="630" fill="url(#background)"/>
  <rect width="1200" height="630" fill="url(#grid)"/>
  <rect x="72" y="70" width="8" height="490" rx="4" fill="#d9ad35"/>
  <text x="120" y="175" fill="#d9ad35" font-family="Arial, sans-serif" font-size="28" font-weight="700" letter-spacing="6">INVESTBOARD DAILY</text>
  <text x="116" y="280" fill="#f0f6fc" font-family="Arial, sans-serif" font-size="72" font-weight="800">오늘 내 돈에 영향을 주는</text>
  <text x="116" y="372" fill="#f0f6fc" font-family="Arial, sans-serif" font-size="72" font-weight="800">금융 데이터 브리핑</text>
  <text x="120" y="445" fill="#8b949e" font-family="Arial, sans-serif" font-size="28">뉴스 · 시장지표 · 공개 관심 신호를 1분 안에</text>
  <g transform="translate(875 100)">
    <circle cx="150" cy="150" r="142" fill="#112b55" stroke="#2b4774" stroke-width="3"/>
    <path d="M55 222V92h55l43 78 48-78h48v130h-37V145l-44 72h-31l-45-72v77z" fill="#7cff00"/>
    <path d="M165 207l74-103 33 24 1-83-80 21 33 24-88 123z" fill="url(#arrow)"/>
  </g>
  <g transform="translate(120 505)" font-family="Arial, sans-serif" font-size="20" font-weight="700">
    <rect width="112" height="42" rx="21" fill="#1f6feb" fill-opacity="0.2" stroke="#58a6ff" stroke-opacity="0.45"/>
    <text x="27" y="28" fill="#58a6ff">NEWS</text>
    <rect x="126" width="130" height="42" rx="21" fill="#238636" fill-opacity="0.2" stroke="#7ee787" stroke-opacity="0.45"/>
    <text x="151" y="28" fill="#7ee787">MARKET</text>
    <rect x="270" width="112" height="42" rx="21" fill="#d29922" fill-opacity="0.2" stroke="#e3b341" stroke-opacity="0.45"/>
    <text x="299" y="28" fill="#e3b341">DATA</text>
  </g>
</svg>
